{
.appVersion = "3134";
.formatVersion = 3;
DisplayStrings = (
"nn/Placeholder nono/Placeholder oo
a/a.ss01 b/b.ss01 c/c.ss01 d/d.ss01 e/e.ss01 f/f.ss01 g/g.ss01 hi/i.ss01 jk/k.ss01 l/l.ss01 m/m.ss01 n/n.ss01 ŋo/o.ss01 p/p.ss01 r/r.ss01 s/s.ss01/s.ss02 t/t.ss01 u/u.ss01 v/v.ss01 w/w.ss01 xy/y.ss01 z
/a.ss01/c.ss01/d.ss01/e.ss01/f.ss01/g.ss01/i.ss01/k.ss01/o.ss01/p.ss01/s.ss01/t.ss01/y.ss01 
/f_i/t_t/o_f/t_r 
HH/Placeholder HOHO/Placeholder OO
ABCDEFGHOIJLM
OPRtSTVWY
Yolŋu/.notdef 
00001111111
11/Placeholder 1010/Placeholder 00
01203456789
0123149879465160321
.,-+
Consolidate + maintain",
"But i accepted their commi/s.ss01 sion because I thought I could play the antagonist while receiving income from the insti/t.ss01 ution I sought to antagonise.

If this position /s.ss02 eems absurd or even arrogant it arguably reflects contemporary art practice under capitalism, a peculiar dance with and against our moral opponents."
);
classes = (
{
automatic = 1;
code = "A B C D E F G H I J L M O P R S T V W Y a b c d e f g h i j k l m n eng o p r s t u v w x y z a.ss01 b.ss01 c.ss01 d.ss01 e.ss01 f.ss01 g.ss01 i.ss01 k.ss01 l.ss01 m.ss01 n.ss01 o.ss01 p.ss01 r.ss01 s.ss01 t.ss01 u.ss01 v.ss01 w.ss01 y.ss01 s.ss02 f_i o_f t_r t_t zero one two three four five six seven eight nine space period comma hyphen plus";
name = All;
},
{
code = "a b c d e f g i k l m n o p r s t u v w y 
";
name = default;
},
{
code = "a.ss01 b.ss01 c.ss01 d.ss01 e.ss01 f.ss01 g.ss01 i.ss01 k.ss01 l.ss01 m.ss01 n.ss01 o.ss01 p.ss01 r.ss01 s.ss01 t.ss01 u.ss01 v.ss01 w.ss01 y.ss01 
";
name = alt;
},
{
code = "a.ss01 b.ss01 c.ss01 d.ss01 e.ss01 f.ss01 g.ss01 i.ss01 k.ss01 l.ss01 m.ss01 n.ss01 o.ss01 p.ss01 r.ss01 s.ss01 t.ss01 u.ss01 v.ss01 w.ss01 y.ss01 ";
name = alt2;
}
);
customParameters = (
{
name = "Use Typo Metrics";
value = 1;
}
);
date = "2022-03-19 08:01:37 +0000";
familyName = "Sunday TB Hand";
featurePrefixes = (
{
automatic = 1;
code = "languagesystem DFLT dflt;
";
name = Languagesystems;
}
);

glyphs = (
{
glyphname = A;
lastChange = "2022-05-06 03:41:33 +0000";
layers = (
{
layerId = m01;
shapes = (
{
closed = 1;
nodes = (
(403,-15,o),
(440,39,o),
(445,95,cs),
(469,355,o),
(478,597,o),
(485,789,cs),
(488,857,o),
(439,885,o),
(359,797,cs),
(239,665,o),
(107,401,o),
(40,3,cs),
(32,-38,o),
(97,-49,o),
(105,9,cs),
(158,378,o),
(292,643,o),
(404,766,cs),
(415,778,o),
(420,777,o),
(420,767,cs),
(414,599,o),
(402,359,o),
(381,101,cs),
(376,41,o),
(341,42,o),
(341,9,cs),
(341,-3,o),
(354,-15,o),
(369,-15,cs)
);
},
{
closed = 1;
nodes = (
(335,269,o),
(452,301,o),
(540,305,cs),
(573,307,o),
(571,346,o),
(484,342,cs),
(441,340,o),
(313,315,o),
(130,268,cs),
(96,258,o),
(108,205,o),
(141,214,cs)
);
}
);
width = 576;
}
);
unicode = 65;
},
{
glyphname = B;
lastChange = "2022-05-06 03:41:33 +0000";
layers = (
{
layerId = m01;
shapes = (
{
closed = 1;
nodes = (
(528,-28,o),
(671,85,o),
(671,207,cs),
(671,308,o),
(599,365,o),
(473,365,cs),
(438,365,o),
(398,359,o),
(356,348,c),
(467,503,o),
(528,677,o),
(528,766,cs),
(528,829,o),
(486,860,o),
(434,860,cs),
(368,860,o),
(272,818,o),
(105,670,cs),
(53,624,o),
(79,567,o),
(112,567,cs),
(129,567,o),
(143,578,o),
(143,591,cs),
(143,606,o),
(131,621,o),
(147,636,cs),
(293,775,o),
(386,804,o),
(430,804,cs),
(452,804,o),
(464,791,o),
(464,766,cs),
(464,657,o),
(397,479,o),
(280,328,cs),
(249,289,o),
(268,267,o),
(307,284,cs),
(355,305,o),
(412,317,o),
(459,317,cs),
(563,317,o),
(607,274,o),
(607,207,cs),
(607,113,o),
(500,28,o),
(400,28,cs),
(334,28,o),
(299,35,o),
(270,50,cs),
(213,79,o),
(186,34,o),
(238,4,cs),
(269,-14,o),
(332,-28,o),
(400,-28,cs)
);
},
{
closed = 1;
nodes = (
(119,-194,o),
(189,-182,o),
(199,-115,cs),
(305,557,ls),
(323,671,o),
(225,615,o),
(225,558,cs),
(225,541,o),
(239,527,o),
(256,527,c),
(244,546,l),
(131,-122,ls)
);
}
);
width = 744;
}
);
unicode = 66;
},
{
glyphname = C;
lastChange = "2022-05-06 03:41:33 +0000";
layers = (
{
layerId = m01;
shapes = (
{
closed = 1;
nodes = (
(450,26,o),
(502,45,o),
(530,67,cs),
(597,120,o),
(563,148,o),
(544,131,cs),
(499,91,o),
(456,82,o),
(394,82,cs),
(303,82,o),
(151,154,o),
(151,330,cs),
(151,541,o),
(322,770,o),
(467,770,cs),
(526,770,o),
(566,748,o),
(566,709,cs),
(566,672,o),
(522,598,o),
(361,466,cs),
(340,449,o),
(356,411,o),
(442,482,cs),
(557,576,o),
(621,657,o),
(621,714,cs),
(621,786,o),
(547,829,o),
(486,829,cs),
(291,829,o),
(87,563,o),
(87,318,cs),
(87,119,o),
(272,26,o),
(383,26,cs)
);
}
);
width = 604;
}
);
unicode = 67;
},
{
glyphname = D;
lastChange = "2022-05-06 03:41:33 +0000";
layers = (
{
layerId = m01;
shapes = (
{
closed = 1;
nodes = (
(494,24,o),
(664,129,o),
(664,375,cs),
(664,677,o),
(449,871,o),
(254,871,cs),
(193,871,o),
(113,843,o),
(72,818,cs),
(-9,769,o),
(40,741,o),
(76,762,cs),
(140,800,o),
(204,817,o),
(254,817,cs),
(417,817,o),
(600,652,o),
(600,375,cs),
(600,159,o),
(460,82,o),
(336,82,cs),
(221,82,o),
(165,131,o),
(165,196,cs),
(165,215,o),
(169,228,o),
(181,245,cs),
(199,270,o),
(173,283,o),
(142,249,cs),
(129,235,o),
(118,213,o),
(118,188,cs),
(118,109,o),
(196,24,o),
(338,24,cs)
);
},
{
closed = 1;
nodes = (
(207,-46,o),
(271,-42,o),
(264,53,cs),
(256,150,o),
(269,368,o),
(295,605,cs),
(303,675,o),
(239,681,o),
(235,639,cs),
(205,372,o),
(192,150,o),
(203,9,cs)
);
}
);
width = 724;
}
);
unicode = 68;
},
{
glyphname = E;
lastChange = "2022-05-06 03:41:33 +0000";
layers = (
{
layerId = m01;
shapes = (
{
closed = 1;
nodes = (
(624,64,o),
(455,21,o),
(307,21,cs),
(181,21,o),
(120,55,o),
(121,119,cs),
(121,177,o),
(187,317,o),
(336,553,cs),
(356,588,o),
(301,618,o),
(260,551,cs),
(128,340,o),
(57,189,o),
(57,119,cs),
(56,18,o),
(159,-39,o),
(307,-39,cs),
(471,-39,o),
(661,29,o),
(748,111,cs),
(786,147,o),
(769,198,o),
(736,198,cs),
(695,198,o),
(718,155,o),
(695,133,cs)
);
},
{
closed = 1;
nodes = (
(554,845,o),
(374,834,o),
(228,724,cs),
(180,688,o),
(224,643,o),
(247,661,cs),
(416,785,o),
(551,790,o),
(651,757,cs),
(679,748,o),
(700,772,o),
(641,802,cs)
);
},
{
closed = 1;
nodes = (
(336,358,o),
(496,434,o),
(653,507,cs),
(686,524,o),
(664,572,o),
(557,521,cs),
(465,477,o),
(302,397,o),
(162,306,cs),
(128,284,o),
(154,239,o),
(227,287,cs)
);
}
);
width = 799;
}
);
unicode = 69;
},
{
glyphname = F;
lastChange = "2022-05-06 03:41:33 +0000";
layers = (
{
layerId = m01;
shapes = (
{
closed = 1;
nodes = (
(296,725,o),
(488,792,o),
(547,792,cs),
(562,792,o),
(567,785,o),
(567,778,cs),
(567,769,o),
(561,759,o),
(535,743,cs),
(487,713,o),
(537,691,o),
(583,724,cs),
(616,747,o),
(631,767,o),
(631,789,cs),
(631,817,o),
(599,843,o),
(547,843,cs),
(473,843,o),
(263,773,o),
(128,678,cs),
(62,632,o),
(111,595,o),
(134,614,cs)
);
},
{
closed = 1;
nodes = (
(515,309,o),
(544,352,o),
(436,384,cs),
(370,403,o),
(288,411,o),
(86,395,cs),
(14,390,o),
(8,334,o),
(60,338,cs),
(292,357,o),
(390,346,o),
(480,319,cs)
);
},
{
closed = 1;
nodes = (
(411,-42,o),
(410,1,cs),
(402,215,o),
(410,484,o),
(423,682,cs),
(430,781,o),
(367,785,o),
(364,743,cs),
(346,486,o),
(338,215,o),
(345,25,cs),
(347,-44,o)
);
}
);
width = 581;
}
);
unicode = 70;
},
{
glyphname = G;
lastChange = "2022-05-06 03:41:33 +0000";
layers = (
{
layerId = m01;
shapes = (
{
closed = 1;
nodes = (
(563,-28,o),
(665,62,o),
(665,165,cs),
(665,237,o),
(625,314,o),
(532,382,c),
(544,357,l),
(633,336,o),
(709,350,o),
(737,364,cs),
(811,404,o),
(793,446,o),
(751,427,cs),
(682,395,o),
(600,384,o),
(501,418,cs),
(442,438,o),
(422,403,o),
(453,384,cs),
(563,318,o),
(601,248,o),
(601,171,cs),
(601,93,o),
(532,28,o),
(422,28,cs),
(255,28,o),
(148,133,o),
(148,277,cs),
(148,504,o),
(359,760,o),
(475,760,cs),
(535,760,o),
(566,690,o),
(543,566,cs),
(535,524,o),
(591,516,o),
(604,610,cs),
(618,705,o),
(577,816,o),
(474,816,cs),
(318,816,o),
(82,525,o),
(82,277,cs),
(82,107,o),
(221,-28,o),
(419,-28,cs)
);
}
);
width = 770;
}
);
unicode = 71;
},
{
glyphname = H;
lastChange = "2022-05-06 03:40:32 +0000";
layers = (
{
layerId = m01;
shapes = (
{
closed = 1;
nodes = (
(293,10,o),
(338,-12,o),
(379,53,cs),
(517,274,o),
(478,409,o),
(578,832,cs),
(608,958,o),
(544,971,o),
(534,922,cs),
(428,421,o),
(469,283,o),
(316,45,cs)
);
},
{
closed = 1;
nodes = (
(144,-25,o),
(208,-21,o),
(205,21,cs),
(192,192,o),
(229,495,o),
(256,728,cs),
(269,841,o),
(205,849,o),
(197,780,cs),
(165,501,o),
(128,192,o),
(141,17,cs)
);
},
{
closed = 1;
nodes = (
(187,374,o),
(345,406,o),
(695,393,cs),
(762,390,o),
(757,434,o),
(655,439,cs),
(288,458,o),
(119,392,o),
(119,303,cs),
(119,271,o),
(171,256,o),
(175,288,cs)
);
}
);
width = 713;
}
);
unicode = 72;
},
{
glyphname = I;
lastChange = "2022-05-06 03:41:33 +0000";
layers = (
{
layerId = m01;
shapes = (
{
closed = 1;
nodes = (
(64,-28,o),
(99,17,o),
(110,60,cs),
(305,842,ls),
(314,878,o),
(342,895,o),
(342,927,cs),
(342,956,o),
(307,967,o),
(289,947,cs),
(265,923,o),
(253,896,o),
(243,856,cs),
(48,74,ls),
(36,25,o),
(9,23,o),
(9,-3,cs),
(9,-17,o),
(19,-28,o),
(33,-28,cs)
);
}
);
width = 309;
}
);
unicode = 73;
},
{
glyphname = J;
lastChange = "2022-05-06 03:41:33 +0000";
layers = (
{
layerId = m01;
shapes = (
{
closed = 1;
nodes = (
(198,121,o),
(355,-16,o),
(494,-16,cs),
(685,-16,o),
(878,259,o),
(930,846,cs),
(933,874,o),
(919,890,o),
(876,872,cs),
(696,798,o),
(458,754,o),
(310,754,cs),
(259,754,o),
(171,764,o),
(120,774,cs),
(62,786,o),
(54,725,o),
(133,710,cs),
(169,704,o),
(255,696,o),
(310,696,cs),
(464,696,o),
(708,754,o),
(891,822,c),
(867,858,l),
(830,299,o),
(649,40,o),
(494,40,cs),
(379,40,o),
(237,157,o),
(132,282,cs),
(110,311,o),
(66,280,o),
(123,211,cs)
);
}
);
width = 926;
}
);
unicode = 74;
},
{
glyphname = L;
lastChange = "2022-08-24 09:17:26 +0000";
layers = (
{
anchors = (
{
name = bottom;
pos = (359,0);
},
{
name = center;
pos = (415,400);
},
{
name = top;
pos = (472,800);
},
{
name = topright;
pos = (842,800);
}
);
layerId = m01;
shapes = (
{
closed = 1;
nodes = (
(350,-27,o),
(536,110,o),
(740,143,cs),
(775,149,o),
(779,200,o),
(665,182,cs),
(510,156,o),
(332,35,o),
(235,35,cs),
(175,35,o),
(149,63,o),
(149,141,cs),
(149,282,o),
(219,521,o),
(292,774,cs),
(314,849,o),
(245,858,o),
(234,807,cs),
(163,533,o),
(85,308,o),
(85,141,cs),
(85,25,o),
(138,-27,o),
(231,-27,cs)
);
}
);
width = 780;
}
);
unicode = 76;
},
{
glyphname = M;
lastChange = "2022-05-06 03:41:33 +0000";
layers = (
{
layerId = m01;
shapes = (
{
closed = 1;
nodes = (
(127,-50,o),
(114,-32,o),
(114,-4,cs),
(114,185,o),
(266,583,o),
(297,583,cs),
(333,583,o),
(362,328,o),
(371,162,cs),
(374,96,o),
(431,79,o),
(437,115,cs),
(503,547,o),
(592,750,o),
(623,750,cs),
(702,750,o),
(647,85,o),
(814,85,cs),
(857,85,o),
(866,140,o),
(826,141,cs),
(718,145,o),
(777,816,o),
(629,816,cs),
(554,816,o),
(474,625,o),
(409,251,c),
(427,260,l),
(412,450,o),
(380,650,o),
(297,650,cs),
(212,650,o),
(52,195,o),
(52,-18,cs),
(52,-103,o),
(127,-111,o),
(127,-71,cs)
);
}
);
width = 926;
}
);
unicode = 77;
},
{
glyphname = O;
lastChange = "2022-05-06 03:40:12 +0000";
layers = (
{
layerId = m01;
shapes = (
{
closed = 1;
nodes = (
(521,-12,o),
(766,230,o),
(766,432,cs),
(766,592,o),
(612,681,o),
(517,690,cs),
(427,698,o),
(422,647,o),
(458,643,cs),
(587,632,o),
(706,560,o),
(706,432,cs),
(706,257,o),
(494,48,o),
(320,48,cs),
(208,48,o),
(140,111,o),
(140,221,cs),
(140,420,o),
(308,757,o),
(494,757,cs),
(525,757,o),
(553,748,o),
(582,723,cs),
(612,693,o),
(667,732,o),
(630,766,cs),
(593,800,o),
(539,813,o),
(494,813,cs),
(260,813,o),
(74,434,o),
(74,221,cs),
(74,84,o),
(172,-12,o),
(315,-12,cs)
);
}
);
width = 799;
}
);
unicode = 79;
},
{
glyphname = P;
lastChange = "2022-05-06 03:41:33 +0000";
layers = (
{
layerId = m01;
shapes = (
{
closed = 1;
nodes = (
(572,367,o),
(699,527,o),
(699,668,cs),
(699,789,o),
(584,896,o),
(462,896,cs),
(294,896,o),
(53,741,o),
(53,586,cs),
(53,548,o),
(71,508,o),
(94,485,cs),
(136,441,o),
(200,449,o),
(157,490,cs),
(138,508,o),
(111,543,o),
(111,586,cs),
(111,709,o),
(318,840,o),
(462,840,cs),
(554,840,o),
(638,763,o),
(638,668,cs),
(638,544,o),
(535,414,o),
(456,414,cs),
(397,414,o),
(383,428,o),
(383,442,cs),
(383,452,o),
(393,463,o),
(409,467,cs),
(424,471,o),
(428,474,o),
(428,481,cs),
(428,493,o),
(416,500,o),
(402,500,cs),
(381,500,o),
(337,474,o),
(337,437,cs),
(337,403,o),
(380,367,o),
(456,367,cs)
);
},
{
closed = 1;
nodes = (
(393,-7,o),
(435,22,o),
(444,124,cs),
(487,600,ls),
(491,646,o),
(439,639,o),
(431,556,cs),
(388,126,ls),
(379,36,o),
(341,29,o),
(341,12,cs),
(341,0,o),
(351,-7,o),
(362,-7,cs)
);
}
);
width = 658;
}
);
unicode = 80;
},
{
glyphname = R;
lastChange = "2022-05-06 03:41:33 +0000";
layers = (
{
layerId = m01;
shapes = (
{
closed = 1;
nodes = (
(664,-15,o),
(676,17,o),
(641,29,cs),
(504,71,o),
(420,347,o),
(316,347,cs),
(236,347,o),
(189,241,o),
(189,198,cs),
(189,161,o),
(216,136,o),
(251,136,cs),
(344,136,o),
(460,438,o),
(460,662,cs),
(460,761,o),
(421,802,o),
(371,802,cs),
(270,802,o),
(145,571,o),
(115,309,cs),
(111,267,o),
(158,261,o),
(163,305,cs),
(191,557,o),
(314,746,o),
(366,746,cs),
(382,746,o),
(397,730,o),
(397,662,cs),
(397,435,o),
(298,181,o),
(253,181,cs),
(244,181,o),
(237,188,o),
(237,201,cs),
(237,227,o),
(273,297,o),
(305,297,cs),
(360,297,o),
(458,49,o),
(585,9,cs)
);
},
{
closed = 1;
nodes = (
(46,-144,o),
(108,-167,o),
(138,-93,cs),
(166,-22,o),
(175,198,o),
(173,482,cs),
(172,563,o),
(112,567,o),
(112,516,cs),
(111,198,o),
(105,-9,o),
(63,-105,cs)
);
}
);
width = 639;
}
);
unicode = 82;
},
{
glyphname = S;
lastChange = "2022-05-06 03:41:33 +0000";
layers = (
{
layerId = m01;
shapes = (
{
closed = 1;
nodes = (
(334,-42,o),
(593,152,o),
(593,284,cs),
(593,449,o),
(245,424,o),
(245,494,cs),
(245,574,o),
(457,770,o),
(570,770,cs),
(607,770,o),
(632,737,o),
(635,659,cs),
(639,562,o),
(695,570,o),
(691,624,cs),
(680,759,o),
(647,826,o),
(570,826,cs),
(425,826,o),
(180,599,o),
(180,491,cs),
(180,358,o),
(529,393,o),
(529,282,cs),
(529,182,o),
(310,17,o),
(43,46,cs),
(-15,53,o),
(-15,-3,o),
(70,-13,cs)
);
}
);
width = 666;
}
);
unicode = 83;
},
{
glyphname = T;
lastChange = "2022-05-06 03:41:33 +0000";
layers = (
{
layerId = m01;
shapes = (
{
closed = 1;
nodes = (
(393,629,o),
(757,769,o),
(978,830,cs),
(1036,845,o),
(1025,894,o),
(898,858,cs),
(733,811,o),
(353,672,o),
(44,529,cs),
(-9,504,o),
(29,450,o),
(126,498,cs)
);
},
{
closed = 1;
nodes = (
(226,-96,o),
(292,-120,o),
(328,-31,cs),
(390,122,o),
(457,387,o),
(480,668,c),
(415,668,l),
(395,367,o),
(332,125,o),
(244,-59,cs)
);
}
);
width = 773;
}
);
unicode = 84;
},
{
glyphname = V;
lastChange = "2022-05-06 03:41:33 +0000";
layers = (
{
layerId = m01;
shapes = (
{
closed = 1;
nodes = (
(655,664,o),
(633,664,cs),
(601,664,o),
(570,651,o),
(552,620,cs),
(462,463,o),
(393,278,o),
(349,85,cs),
(343,56,o),
(324,59,o),
(303,87,cs),
(207,214,o),
(206,391,o),
(206,676,cs),
(206,775,o),
(132,778,o),
(133,735,cs),
(146,396,o),
(142,198,o),
(261,42,cs),
(318,-31,o),
(379,-30,o),
(390,22,cs),
(437,246,o),
(517,439,o),
(607,596,cs),
(613,607,o),
(624,610,o),
(641,610,cs),
(660,610,o),
(672,617,o),
(673,635,cs),
(672,655,o)
);
}
);
width = 645;
}
);
unicode = 86;
},
{
glyphname = W;
lastChange = "2022-05-06 03:41:33 +0000";
layers = (
{
layerId = m01;
shapes = (
{
closed = 1;
nodes = (
(613,349,o),
(614,164,o),
(573,164,cs),
(517,164,o),
(566,409,o),
(492,409,cs),
(421,409,o),
(309,20,o),
(237,20,cs),
(145,20,o),
(207,284,o),
(207,601,cs),
(207,713,o),
(132,711,o),
(134,668,cs),
(151,275,o),
(56,-36,o),
(233,-36,cs),
(357,-36,o),
(449,334,o),
(505,345,c),
(477,349,l),
(492,314,o),
(470,110,o),
(579,110,cs),
(689,110,o),
(665,368,o),
(797,788,cs),
(812,836,o),
(753,860,o),
(720,741,cs)
);
}
);
width = 788;
}
);
unicode = 87;
},
{
glyphname = Y;
lastChange = "2022-04-11 07:38:11 +0000";
layers = (
{
layerId = m01;
shapes = (
{
closed = 1;
nodes = (
(214,394,o),
(173,647,o),
(173,800,cs),
(173,843,o),
(109,843,o),
(109,773,cs),
(109,657,o),
(158,295,o),
(388,452,cs),
(420,474,o),
(380,511,o),
(346,484,cs)
);
},
{
closed = 1;
nodes = (
(246,0,o),
(246,19,cs),
(246,147,o),
(367,387,o),
(675,808,cs),
(696,842,o),
(653,881,o),
(598,804,cs),
(313,409,o),
(177,158,o),
(177,11,cs),
(177,-71,o),
(259,-72,o),
(259,-28,cs),
(259,-12,o)
);
}
);
width = 616;
}
);
unicode = 89;
},
{
glyphname = a;
lastChange = "2022-05-06 03:40:39 +0000";
layers = (
{
layerId = m01;
shapes = (
{
closed = 1;
nodes = (
(449,128,o),
(436,123,o),
(426,123,cs),
(411,123,o),
(388,147,o),
(388,253,cs),
(388,396,o),
(428,428,o),
(388,428,cs),
(392,428,o),
(363,444,o),
(363,440,cs),
(363,336,o),
(202,95,o),
(113,95,cs),
(82,95,o),
(71,108,o),
(71,146,cs),
(71,239,o),
(204,391,o),
(329,410,cs),
(379,418,o),
(365,463,o),
(320,456,cs),
(162,432,o),
(7,256,o),
(7,146,cs),
(7,81,o),
(53,39,o),
(113,39,cs),
(241,39,o),
(412,324,o),
(412,449,cs),
(412,466,o),
(402,476,o),
(388,476,cs),
(357,476,o),
(335,402,o),
(335,253,cs),
(335,134,o),
(377,80,o),
(423,80,cs),
(439,80,o),
(459,85,o),
(470,95,cs),
(485,107,o),
(485,128,o),
(464,129,cs)
);
}
);
width = 498;
}
);
unicode = 97;
},
{
glyphname = b;
lastChange = "2022-05-06 03:40:42 +0000";
layers = (
{
layerId = m01;
shapes = (
{
closed = 1;
nodes = (
(194,-2,o),
(221,-6,o),
(244,-6,cs),
(375,-6,o),
(524,175,o),
(524,321,cs),
(524,400,o),
(477,430,o),
(434,430,cs),
(367,430,o),
(250,346,o),
(165,228,c),
(197,420,o),
(240,641,o),
(284,829,cs),
(294,872,o),
(279,891,o),
(258,891,cs),
(243,891,o),
(231,880,o),
(222,842,cs),
(157,566,o),
(104,246,o),
(76,54,cs),
(65,-23,o),
(121,-29,o),
(137,42,cs),
(173,204,o),
(364,374,o),
(428,374,cs),
(449,374,o),
(460,362,o),
(460,321,cs),
(460,191,o),
(346,50,o),
(248,50,cs),
(234,50,o),
(217,53,o),
(204,56,cs),
(163,67,o),
(147,20,o),
(179,5,cs)
);
}
);
width = 562;
}
);
unicode = 98;
},
{
glyphname = c;
lastChange = "2022-03-23 02:45:40 +0000";
layers = (
{
layerId = m01;
shapes = (
{
closed = 1;
nodes = (
(264,-24,o),
(362,21,o),
(411,49,cs),
(504,102,o),
(477,149,o),
(443,129,cs),
(337,68,o),
(254,32,o),
(203,32,cs),
(146,32,o),
(112,66,o),
(112,119,cs),
(112,218,o),
(222,349,o),
(289,389,cs),
(302,396,o),
(340,395,o),
(340,428,cs),
(340,452,o),
(313,472,o),
(270,445,cs),
(177,388,o),
(48,236,o),
(48,114,cs),
(48,38,o),
(111,-24,o),
(196,-24,cs)
);
}
);
width = 509;
}
);
unicode = 99;
},
{
glyphname = d;
lastChange = "2022-05-06 03:40:48 +0000";
layers = (
{
layerId = m01;
shapes = (
{
closed = 1;
nodes = (
(263,-6,o),
(582,593,o),
(646,743,cs),
(682,827,o),
(629,852,o),
(587,784,cs),
(456,575,o),
(351,251,o),
(341,93,cs),
(340,75,o),
(354,59,o),
(373,59,cs),
(390,59,o),
(404,72,o),
(405,89,cs),
(409,167,o),
(448,333,o),
(525,519,c),
(469,514,l),
(338,273,o),
(179,50,o),
(119,50,cs),
(104,50,o),
(94,59,o),
(94,75,cs),
(94,121,o),
(198,218,o),
(236,218,cs),
(257,218,o),
(280,206,o),
(295,194,cs),
(340,158,o),
(374,194,o),
(336,227,cs),
(312,249,o),
(273,274,o),
(236,274,cs),
(163,274,o),
(30,146,o),
(30,75,cs),
(30,26,o),
(74,-6,o),
(119,-6,cs)
);
}
);
width = 568;
}
);
unicode = 100;
},
{
glyphname = e;
lastChange = "2022-05-06 03:40:53 +0000";
layers = (
{
layerId = m01;
shapes = (
{
closed = 1;
nodes = (
(315,4,o),
(456,101,o),
(515,181,cs),
(577,265,o),
(526,286,o),
(498,248,cs),
(418,137,o),
(293,60,o),
(211,60,cs),
(161,60,o),
(125,82,o),
(125,138,cs),
(125,227,o),
(250,392,o),
(319,392,cs),
(350,392,o),
(362,381,o),
(362,361,cs),
(362,324,o),
(339,277,o),
(206,230,cs),
(169,217,o),
(197,179,o),
(226,188,cs),
(365,233,o),
(426,307,o),
(426,361,cs),
(426,417,o),
(374,448,o),
(322,448,cs),
(210,448,o),
(61,247,o),
(61,138,cs),
(61,52,o),
(132,4,o),
(211,4,cs)
);
}
);
width = 600;
}
);
unicode = 101;
},
{
glyphname = f;
lastChange = "2022-05-06 03:40:57 +0000";
layers = (
{
layerId = m01;
shapes = (
{
closed = 1;
nodes = (
(187,-126,o),
(241,4,o),
(340,290,cs),
(529,831,o),
(631,1014,o),
(662,1014,cs),
(670,1014,o),
(684,998,o),
(699,954,cs),
(703,941,o),
(715,932,o),
(728,932,cs),
(746,932,o),
(760,947,o),
(760,964,cs),
(760,968,o),
(759,972,o),
(758,975,cs),
(735,1036,o),
(701,1070,o),
(662,1070,cs),
(581,1070,o),
(470,855,o),
(280,308,cs),
(181,24,o),
(129,-102,o),
(54,-231,cs),
(52,-235,o),
(50,-240,o),
(50,-246,cs),
(50,-263,o),
(64,-277,o),
(81,-277,cs),
(93,-277,o),
(103,-271,o),
(108,-262,cs)
);
},
{
closed = 1;
nodes = (
(425,311,o),
(352,333,o),
(277,333,cs),
(172,333,o),
(20,266,o),
(-8,132,cs),
(-12,112,o),
(3,94,o),
(24,94,cs),
(39,94,o),
(52,105,o),
(55,120,cs),
(75,226,o),
(190,277,o),
(277,277,cs),
(343,277,o),
(410,256,o),
(480,245,cs),
(497,243,o),
(512,256,o),
(512,273,cs),
(512,287,o),
(502,299,o),
(489,301,cs)
);
}
);
width = 540;
}
);
unicode = 102;
},
{
glyphname = g;
lastChange = "2022-05-06 03:41:00 +0000";
layers = (
{
layerId = m01;
shapes = (
{
closed = 1;
nodes = (
(669,308,o),
(604,392,o),
(517,392,cs),
(341,392,o),
(-7,-136,o),
(-7,-406,cs),
(-7,-507,o),
(36,-557,o),
(88,-557,cs),
(178,-557,o),
(250,-440,o),
(283,-252,cs),
(304,-130,o),
(370,161,o),
(420,362,cs),
(440,442,o),
(401,437,o),
(355,389,cs),
(275,305,o),
(181,228,o),
(140,228,cs),
(127,228,o),
(120,234,o),
(120,249,cs),
(120,332,o),
(236,411,o),
(327,411,cs),
(361,411,o),
(385,415,o),
(385,433,cs),
(385,447,o),
(366,459,o),
(323,459,cs),
(211,459,o),
(55,355,o),
(55,245,cs),
(55,199,o),
(91,170,o),
(136,170,cs),
(189,170,o),
(269,226,o),
(337,290,c),
(297,125,o),
(239,-131,o),
(219,-242,cs),
(189,-417,o),
(135,-501,o),
(88,-501,cs),
(72,-501,o),
(57,-480,o),
(57,-406,cs),
(57,-154,o),
(385,336,o),
(517,336,cs),
(566,336,o),
(607,286,o),
(611,228,cs),
(612,204,o),
(626,191,o),
(643,191,cs),
(662,191,o),
(676,208,o),
(673,252,cs)
);
}
);
width = 652;
}
);
unicode = 103;
},
{
glyphname = h;
lastChange = "2022-05-06 03:41:03 +0000";
layers = (
{
anchors = (
{
name = bottom;
pos = (221,0);
},
{
name = center;
pos = (284,450);
},
{
name = top;
pos = (348,900);
}
);
layerId = m01;
shapes = (
{
closed = 1;
nodes = (
(407,38,o),
(402,37,o),
(397,37,cs),
(384,37,o),
(380,42,o),
(380,63,cs),
(380,113,o),
(430,266,o),
(430,365,cs),
(430,431,o),
(408,471,o),
(360,471,cs),
(292,471,o),
(165,333,o),
(122,105,c),
(146,99,l),
(140,255,o),
(278,658,o),
(329,885,cs),
(358,1007,o),
(340,1029,o),
(322,1029,cs),
(305,1029,o),
(295,1017,o),
(267,899,cs),
(214,668,o),
(72,249,o),
(83,89,cs),
(87,22,o),
(125,18,o),
(146,95,cs),
(203,305,o),
(320,415,o),
(360,415,cs),
(364,415,o),
(366,407,o),
(366,365,cs),
(366,274,o),
(316,121,o),
(316,63,cs),
(316,13,o),
(353,-19,o),
(397,-19,cs),
(410,-19,o),
(424,-16,o),
(437,-11,cs),
(448,-7,o),
(455,4,o),
(455,16,cs),
(455,32,o),
(442,44,o),
(427,44,cs),
(422,44,o),
(418,43,o),
(414,41,cs)
);
}
);
width = 504;
}
);
unicode = 104;
},
{
glyphname = i;
lastChange = "2022-05-06 03:41:07 +0000";
layers = (
{
layerId = m01;
shapes = (
{
closed = 1;
nodes = (
(208,358,ls),
(211,376,o),
(199,396,o),
(177,396,cs),
(160,396,o),
(145,382,o),
(143,367,cs),
(101,84,ls),
(98,66,o),
(110,47,o),
(130,47,cs),
(146,47,o),
(159,60,o),
(161,75,cs)
);
},
{
closed = 1;
nodes = (
(141,660,ls),
(177,638,o),
(224,675,o),
(170,710,cs),
(127,738,ls),
(88,764,o),
(54,712,o),
(94,688,cs)
);
}
);
width = 269;
}
);
unicode = 105;
},
{
glyphname = j;
lastChange = "2022-03-22 11:25:54 +0000";
layers = (
{
layerId = m01;
shapes = (
{
closed = 1;
nodes = (
(-75,-391,o),
(-103,-456,o),
(-103,-518,cs),
(-103,-626,o),
(-32,-707,o),
(81,-707,cs),
(232,-707,o),
(334,-540,o),
(331,-378,cs),
(327,-165,o),
(326,145,o),
(338,417,cs),
(340,463,o),
(290,462,o),
(272,423,cs),
(162,181,o),
(117,134,o),
(60,66,cs),
(39,41,o),
(65,13,o),
(102,27,cs),
(136,41,o),
(192,112,o),
(268,288,c),
(262,45,o),
(264,-201,o),
(267,-380,cs),
(270,-520,o),
(190,-646,o),
(81,-646,cs),
(1,-646,o),
(-49,-595,o),
(-49,-521,cs),
(-49,-468,o),
(-34,-401,o),
(8,-346,cs),
(27,-321,o),
(8,-294,o),
(-22,-329,cs)
);
},
{
closed = 1;
nodes = (
(324,756,ls),
(274,728,o),
(288,679,o),
(358,709,cs),
(413,733,ls),
(452,748,o),
(437,819,o),
(383,789,cs)
);
}
);
width = 460;
}
);
unicode = 106;
},
{
glyphname = k;
lastChange = "2022-05-06 03:41:11 +0000";
layers = (
{
layerId = m01;
shapes = (
{
closed = 1;
nodes = (
(168,71,o),
(154,245,o),
(270,725,cs),
(280,766,o),
(269,781,o),
(251,781,cs),
(234,781,o),
(217,773,o),
(209,739,cs),
(90,249,o),
(104,67,o),
(105,41,cs),
(109,-53,o),
(126,-83,o),
(143,-83,cs),
(161,-83,o),
(173,-51,o),
(169,45,cs)
);
},
{
closed = 1;
nodes = (
(705,82,o),
(547,291,o),
(382,291,cs),
(374,291,o),
(366,291,o),
(357,290,c),
(454,396,o),
(526,546,o),
(637,701,cs),
(647,717,o),
(677,707,o),
(677,733,cs),
(677,753,o),
(659,769,o),
(636,769,cs),
(625,769,o),
(616,762,o),
(605,746,cs),
(460,544,o),
(372,363,o),
(240,263,cs),
(175,214,o),
(212,182,o),
(277,213,cs),
(313,228,o),
(349,235,o),
(382,235,cs),
(514,235,o),
(660,40,o),
(880,-65,cs),
(926,-87,o),
(949,-74,o),
(949,-56,cs),
(949,-42,o),
(943,-33,o),
(911,-17,cs)
);
}
);
width = 974;
}
);
unicode = 107;
},
{
glyphname = l;
lastChange = "2022-03-19 08:19:33 +0000";
layers = (
{
layerId = m01;
shapes = (
{
closed = 1;
nodes = (
(182,79,o),
(182,168,o),
(182,264,cs),
(182,375,o),
(209,583,o),
(243,730,cs),
(262,812,o),
(275,847,o),
(290,863,cs),
(315,890,o),
(278,929,o),
(250,901,cs),
(224,876,o),
(206,831,o),
(185,740,cs),
(149,589,o),
(118,379,o),
(118,264,cs),
(118,167,o),
(126,73,o),
(140,-9,cs),
(143,-24,o),
(153,-37,o),
(169,-37,cs),
(188,-37,o),
(198,-18,o),
(195,2,cs)
);
}
);
width = 318;
}
);
unicode = 108;
},
{
glyphname = m;
lastChange = "2022-05-06 03:41:18 +0000";
layers = (
{
layerId = m01;
shapes = (
{
closed = 1;
nodes = (
(1125,299,o),
(1104,481,o),
(962,481,cs),
(884,481,o),
(800,425,o),
(721,312,c),
(727,431,o),
(688,510,o),
(600,510,cs),
(494,510,o),
(316,351,o),
(151,114,cs),
(140,99,o),
(133,101,o),
(133,118,cs),
(133,246,o),
(184,369,o),
(282,425,cs),
(313,443,o),
(296,475,o),
(262,459,cs),
(112,390,o),
(69,258,o),
(69,75,cs),
(69,4,o),
(139,-12,o),
(179,45,cs),
(366,316,o),
(526,454,o),
(600,454,cs),
(672,454,o),
(686,334,o),
(617,138,cs),
(604,100,o),
(662,73,o),
(682,118,cs),
(779,334,o),
(882,425,o),
(962,425,cs),
(1043,425,o),
(1060,293,o),
(1024,49,cs),
(1021,31,o),
(1035,12,o),
(1055,12,cs),
(1071,12,o),
(1085,24,o),
(1087,40,cs)
);
}
);
width = 1192;
}
);
unicode = 109;
},
{
glyphname = n;
lastChange = "2022-05-06 03:41:24 +0000";
layers = (
{
layerId = m01;
shapes = (
{
closed = 1;
nodes = (
(201,350,l),
(201,380,o),
(203,420,o),
(197,445,cs),
(183,504,o),
(113,501,o),
(126,446,cs),
(135,411,o),
(137,377,o),
(137,350,cs),
(137,276,o),
(89,215,o),
(54,17,cs),
(45,-35,o),
(107,-44,o),
(121,26,cs),
(165,256,o),
(307,446,o),
(385,446,cs),
(421,446,o),
(439,407,o),
(439,316,cs),
(439,251,o),
(430,126,o),
(402,20,cs),
(389,-31,o),
(453,-39,o),
(469,22,cs),
(493,116,o),
(503,248,o),
(503,316,cs),
(503,422,o),
(467,502,o),
(385,502,cs),
(324,502,o),
(252,441,o),
(189,344,c)
);
}
);
width = 600;
}
);
unicode = 110;
},
{
glyphname = eng;
lastChange = "2022-04-11 07:32:48 +0000";
layers = (
{
layerId = m01;
shapes = (
{
closed = 1;
nodes = (
(-25,-252,o),
(-25,-237,cs),
(-25,-182,o),
(-87,-205,o),
(-87,-287,cs),
(-87,-383,o),
(-17,-443,o),
(85,-443,cs),
(185,-443,o),
(286,-421,o),
(350,-310,cs),
(397,-227,o),
(408,-86,o),
(408,136,cs),
(408,427,o),
(380,493,o),
(304,493,cs),
(197,493,o),
(117,274,o),
(143,15,c),
(166,6,l),
(138,69,o),
(123,217,o),
(131,308,cs),
(137,380,o),
(73,388,o),
(69,333,cs),
(60,232,o),
(66,92,o),
(109,8,cs),
(143,-61,o),
(186,-35,o),
(184,28,cs),
(171,269,o),
(239,437,o),
(301,437,cs),
(335,437,o),
(350,401,o),
(350,136,cs),
(350,-84,o),
(334,-213,o),
(294,-282,cs),
(243,-372,o),
(176,-387,o),
(85,-387,cs),
(8,-387,o),
(-31,-355,o),
(-31,-285,cs),
(-31,-271,o)
);
}
);
width = 520;
}
);
unicode = 331;
},
{
glyphname = o;
lastChange = "2022-03-23 01:04:03 +0000";
layers = (
{
layerId = m01;
shapes = (
{
closed = 1;
nodes = (
(373,322,o),
(443,271,o),
(443,195,cs),
(443,97,o),
(361,7,o),
(283,7,cs),
(185,7,o),
(124,65,o),
(124,184,cs),
(124,314,o),
(216,421,o),
(319,465,cs),
(352,479,o),
(326,540,o),
(265,508,cs),
(180,465,o),
(60,330,o),
(60,178,cs),
(60,27,o),
(156,-49,o),
(270,-49,cs),
(389,-49,o),
(501,71,o),
(501,195,cs),
(501,295,o),
(414,358,o),
(365,389,cs),
(292,435,o),
(265,383,o),
(305,361,cs)
);
}
);
width = 567;
}
);
unicode = 111;
},
{
glyphname = p;
lastChange = "2022-05-06 03:41:33 +0000";
layers = (
{
layerId = m01;
shapes = (
{
closed = 1;
nodes = (
(85,-183,o),
(131,-182,o),
(154,-114,cs),
(261,197,o),
(437,508,o),
(531,508,cs),
(551,508,o),
(567,494,o),
(567,435,cs),
(567,245,o),
(454,41,o),
(263,41,cs),
(200,41,o),
(149,69,o),
(110,113,cs),
(94,131,o),
(84,137,o),
(69,137,cs),
(54,137,o),
(47,119,o),
(58,103,cs),
(96,50,o),
(160,-15,o),
(263,-15,cs),
(486,-15,o),
(631,252,o),
(631,445,cs),
(631,520,o),
(591,563,o),
(538,563,cs),
(427,563,o),
(229,280,o),
(121,-56,c),
(132,-51,l),
(134,94,o),
(162,269,o),
(200,375,cs),
(216,419,o),
(202,440,o),
(181,440,cs),
(167,440,o),
(153,430,o),
(143,401,cs),
(91,259,o),
(64,42,o),
(78,-115,cs)
);
}
);
width = 653;
}
);
unicode = 112;
},
{
glyphname = r;
lastChange = "2022-03-24 06:38:08 +0000";
layers = (
{
layerId = m01;
shapes = (
{
closed = 1;
nodes = (
(283,94,o),
(500,350,o),
(593,350,cs),
(610,350,o),
(628,340,o),
(645,340,cs),
(656,340,o),
(664,349,o),
(664,361,cs),
(664,386,o),
(625,406,o),
(593,406,cs),
(497,406,o),
(347,256,o),
(226,144,cs),
(208,128,o),
(201,130,o),
(211,150,cs),
(254,238,o),
(298,311,o),
(298,361,cs),
(298,419,o),
(239,482,o),
(173,482,cs),
(142,482,o),
(101,474,o),
(59,455,cs),
(11,432,o),
(31,393,o),
(80,409,cs),
(114,420,o),
(148,426,o),
(173,426,cs),
(205,426,o),
(234,395,o),
(234,361,cs),
(234,304,o),
(169,190,o),
(122,75,cs),
(94,6,o),
(114,-20,o),
(182,26,cs)
);
}
);
width = 640;
}
);
unicode = 114;
},
{
glyphname = s;
lastChange = "2022-05-06 03:41:33 +0000";
layers = (
{
layerId = m01;
shapes = (
{
closed = 1;
nodes = (
(26,144,o),
(8,109,o),
(8,81,cs),
(8,29,o),
(70,-24,o),
(148,-24,cs),
(232,-24,o),
(361,88,o),
(361,171,cs),
(361,266,o),
(209,292,o),
(209,323,cs),
(209,343,o),
(287,403,o),
(317,403,cs),
(324,403,o),
(329,401,o),
(336,401,cs),
(349,401,o),
(360,411,o),
(360,424,cs),
(360,446,o),
(334,459,o),
(313,459,cs),
(270,459,o),
(145,362,o),
(145,319,cs),
(145,260,o),
(297,233,o),
(297,171,cs),
(297,116,o),
(201,32,o),
(148,32,cs),
(100,32,o),
(72,57,o),
(72,81,cs),
(72,101,o),
(82,128,o),
(96,157,cs),
(112,190,o),
(79,215,o),
(54,181,cs)
);
}
);
width = 399;
}
);
unicode = 115;
},
{
glyphname = t;
lastChange = "2022-03-22 05:32:15 +0000";
layers = (
{
layerId = m01;
shapes = (
{
closed = 1;
nodes = (
(241,-34,o),
(253,-22,o),
(256,-7,cs),
(371,651,ls),
(393,779,o),
(437,867,o),
(485,925,cs),
(495,935,o),
(494,952,o),
(484,962,cs),
(473,974,o),
(452,974,o),
(441,961,cs),
(373,879,o),
(330,789,o),
(306,653,cs),
(193,3,ls),
(190,-16,o),
(205,-34,o),
(225,-34,cs)
);
},
{
closed = 1;
nodes = (
(208,370,o),
(460,383,o),
(684,425,cs),
(697,427,o),
(707,439,o),
(707,452,cs),
(707,470,o),
(690,483,o),
(673,480,cs),
(452,439,o),
(210,426,o),
(54,454,cs),
(37,457,o),
(21,444,o),
(21,426,cs),
(21,412,o),
(31,401,o),
(45,399,cs)
);
}
);
width = 450;
}
);
unicode = 116;
},
{
glyphname = u;
lastChange = "2022-05-06 03:41:33 +0000";
layers = (
{
layerId = m01;
shapes = (
{
closed = 1;
nodes = (
(283,-5,o),
(404,120,o),
(404,260,cs),
(404,321,o),
(410,406,o),
(422,440,cs),
(445,505,o),
(404,522,o),
(383,464,cs),
(365,415,o),
(349,323,o),
(346,238,cs),
(343,159,o),
(250,51,o),
(191,51,cs),
(145,51,o),
(119,101,o),
(119,172,cs),
(119,217,o),
(138,294,o),
(171,362,cs),
(197,432,o),
(135,450,o),
(119,409,cs),
(78,308,o),
(55,224,o),
(55,172,cs),
(55,83,o),
(102,-5,o),
(191,-5,cs)
);
}
);
width = 461;
}
);
unicode = 117;
},
{
glyphname = v;
lastChange = "2022-05-06 03:41:33 +0000";
layers = (
{
layerId = m01;
shapes = (
{
closed = 1;
nodes = (
(742,504,o),
(702,553,o),
(652,553,cs),
(561,553,o),
(301,80,o),
(195,80,cs),
(168,80,o),
(157,94,o),
(157,171,cs),
(157,268,o),
(165,375,o),
(165,427,cs),
(165,445,o),
(174,458,o),
(174,472,cs),
(174,490,o),
(164,497,o),
(148,497,cs),
(121,497,o),
(101,482,o),
(101,429,cs),
(101,377,o),
(93,270,o),
(93,171,cs),
(93,71,o),
(129,24,o),
(190,24,cs),
(340,24,o),
(601,494,o),
(652,494,cs),
(667,494,o),
(684,473,o),
(693,429,cs),
(700,397,o),
(712,386,o),
(728,386,cs),
(748,386,o),
(763,404,o),
(755,441,cs)
);
}
);
width = 739;
}
);
unicode = 118;
},
{
glyphname = w;
lastChange = "2022-05-06 03:41:33 +0000";
layers = (
{
layerId = m01;
shapes = (
{
closed = 1;
nodes = (
(163,-19,o),
(284,168,o),
(332,168,cs),
(339,168,o),
(343,161,o),
(340,144,cs),
(332,84,o),
(360,35,o),
(417,35,cs),
(540,35,o),
(548,252,o),
(647,369,cs),
(678,404,o),
(669,429,o),
(648,429,cs),
(639,429,o),
(632,426,o),
(609,400,cs),
(514,292,o),
(488,91,o),
(417,91,cs),
(395,91,o),
(383,120,o),
(396,207,cs),
(400,236,o),
(390,249,o),
(371,249,cs),
(309,249,o),
(150,56,o),
(127,56,cs),
(121,56,o),
(117,63,o),
(117,77,cs),
(117,146,o),
(153,246,o),
(219,322,cs),
(245,352,o),
(229,390,o),
(188,390,cs),
(172,390,o),
(159,378,o),
(151,366,cs),
(84,260,o),
(53,155,o),
(53,73,cs),
(53,17,o),
(83,-19,o),
(119,-19,cs)
);
}
);
width = 691;
}
);
unicode = 119;
},
{
glyphname = x;
lastChange = "2022-04-12 04:51:00 +0000";
layers = (
{
layerId = m01;
shapes = (
{
closed = 1;
nodes = (
(182,97,o),
(334,249,o),
(578,382,cs),
(610,399,o),
(578,444,o),
(510,405,cs),
(309,290,o),
(125,125,o),
(89,-47,cs),
(75,-115,o),
(136,-127,o),
(145,-85,cs)
);
},
{
closed = 1;
nodes = (
(518,39,o),
(570,66,o),
(530,103,cs),
(406,218,o),
(247,334,o),
(109,415,cs),
(54,447,o),
(21,395,o),
(52,375,cs),
(210,284,o),
(357,187,o),
(456,96,cs)
);
}
);
width = 585;
}
);
unicode = 120;
},
{
glyphname = y;
lastChange = "2022-05-06 03:41:33 +0000";
layers = (
{
layerId = m01;
shapes = (
{
closed = 1;
nodes = (
(133,-340,o),
(125,-385,o),
(125,-406,cs),
(125,-509,o),
(197,-573,o),
(293,-573,cs),
(404,-573,o),
(562,-430,o),
(548,-194,cs),
(539,-46,o),
(530,197,o),
(534,331,cs),
(535,391,o),
(503,445,o),
(457,445,cs),
(386,445,o),
(209,205,o),
(163,205,cs),
(152,205,o),
(143,220,o),
(143,243,cs),
(143,317,o),
(157,382,o),
(174,413,cs),
(191,443,o),
(180,467,o),
(164,467,cs),
(151,467,o),
(137,462,o),
(113,421,cs),
(100,398,o),
(79,324,o),
(79,251,cs),
(79,181,o),
(118,149,o),
(159,149,cs),
(232,149,o),
(410,393,o),
(454,393,cs),
(469,393,o),
(480,372,o),
(479,333,cs),
(475,197,o),
(475,-48,o),
(484,-198,cs),
(496,-404,o),
(372,-517,o),
(293,-517,cs),
(217,-517,o),
(173,-483,o),
(173,-406,cs),
(173,-389,o),
(175,-340,o),
(180,-304,cs),
(187,-253,o),
(152,-268,o),
(143,-303,cs)
);
}
);
width = 666;
}
);
unicode = 121;
},
{
glyphname = z;
lastChange = "2022-04-12 04:56:51 +0000";
layers = (
{
layerId = m01;
shapes = (
{
closed = 1;
nodes = (
(291,-81,o),
(379,-68,o),
(434,-49,cs),
(513,-22,o),
(495,23,o),
(458,10,cs),
(367,-20,o),
(292,-25,o),
(237,-25,cs),
(141,-25,o),
(109,5,o),
(109,43,cs),
(109,130,o),
(396,251,o),
(465,349,cs),
(509,412,o),
(469,473,o),
(349,473,cs),
(277,473,o),
(196,457,o),
(147,441,cs),
(57,411,o),
(76,355,o),
(129,373,cs),
(201,398,o),
(282,417,o),
(339,417,cs),
(408,417,o),
(428,404,o),
(413,382,cs),
(345,285,o),
(38,159,o),
(38,39,cs),
(38,-30,o),
(95,-81,o),
(229,-81,cs)
);
}
);
width = 551;
}
);
unicode = 122;
},
{
glyphname = a.ss01;
lastChange = "2022-05-06 03:39:40 +0000";
layers = (
{
layerId = m01;
shapes = (
{
closed = 1;
nodes = (
(455,33,o),
(547,167,o),
(618,298,cs),
(641,340,o),
(590,362,o),
(549,287,cs),
(496,190,o),
(419,88,o),
(382,88,cs),
(366,88,o),
(357,101,o),
(357,137,cs),
(357,171,o),
(367,252,o),
(432,365,c),
(382,392,l),
(287,235,o),
(180,138,o),
(135,138,cs),
(123,138,o),
(116,144,o),
(116,157,cs),
(116,214,o),
(252,397,o),
(316,397,cs),
(354,397,o),
(411,362,o),
(420,355,cs),
(462,325,o),
(486,360,o),
(465,381,cs),
(422,424,o),
(356,451,o),
(311,450,cs),
(207,450,o),
(52,231,o),
(52,158,cs),
(52,107,o),
(82,82,o),
(119,82,cs),
(177,82,o),
(261,157,o),
(341,262,c),
(330,262,l),
(303,207,o),
(296,162,o),
(296,137,cs),
(296,72,o),
(333,33,o),
(377,33,cs)
);
}
);
width = 580;
}
);
},
{
glyphname = b.ss01;
lastChange = "2022-05-06 03:40:44 +0000";
layers = (
{
layerId = m01;
shapes = (
{
closed = 1;
nodes = (
(61,22,o),
(114,5,o),
(150,5,cs),
(309,5,o),
(505,254,o),
(505,396,cs),
(505,454,o),
(465,497,o),
(402,497,cs),
(322,497,o),
(207,403,o),
(107,184,c),
(135,193,o),
(137,188,o),
(139,191,c),
(193,343,o),
(283,737,o),
(284,835,cs),
(285,877,o),
(267,897,o),
(249,897,cs),
(231,897,o),
(221,883,o),
(221,865,cs),
(218,718,o),
(107,223,o),
(38,48,cs),
(19,-1,o),
(81,-8,o),
(98,37,cs),
(208,324,o),
(334,443,o),
(396,443,cs),
(421,443,o),
(438,430,o),
(438,402,cs),
(438,279,o),
(262,61,o),
(150,61,cs),
(116,61,o),
(102,73,o),
(82,73,cs),
(70,73,o),
(61,63,o),
(61,50,cs)
);
}
);
width = 542;
}
);
},
{
glyphname = c.ss01;
lastChange = "2022-05-06 03:39:44 +0000";
layers = (
{
layerId = m01;
shapes = (
{
closed = 1;
nodes = (
(244,51,o),
(196,38,o),
(169,38,cs),
(130,38,o),
(109,68,o),
(109,125,cs),
(109,226,o),
(213,420,o),
(252,420,cs),
(258,420,o),
(267,418,o),
(271,394,cs),
(283,319,o),
(325,333,o),
(320,371,cs),
(308,443,o),
(291,469,o),
(256,469,cs),
(165,469,o),
(47,234,o),
(47,109,cs),
(47,46,o),
(86,-17,o),
(156,-17,cs),
(208,-17,o),
(274,25,o),
(295,42,cs),
(351,89,o),
(341,130,o),
(294,92,cs)
);
}
);
width = 371;
}
);
},
{
glyphname = d.ss01;
lastChange = "2022-05-06 03:39:50 +0000";
layers = (
{
layerId = m01;
shapes = (
{
closed = 1;
nodes = (
(399,293,o),
(406,419,o),
(415,537,c),
(393,449,o),
(369,364,o),
(339,292,cs),
(286,161,o),
(193,70,o),
(154,70,cs),
(129,70,o),
(113,83,o),
(113,128,cs),
(113,198,o),
(176,316,o),
(306,362,cs),
(338,374,o),
(322,427,o),
(255,404,cs),
(125,359,o),
(49,211,o),
(49,128,cs),
(49,55,o),
(99,14,o),
(154,14,cs),
(224,14,o),
(326,125,o),
(381,260,cs),
(432,385,o),
(523,737,o),
(547,871,cs),
(570,994,o),
(517,1018,o),
(474,893,cs),
(422,741,o),
(356,429,o),
(338,232,cs),
(328,128,o),
(399,128,o),
(399,221,cs)
);
}
);
width = 516;
}
);
},
{
glyphname = e.ss01;
lastChange = "2022-05-06 03:39:46 +0000";
layers = (
{
layerId = m01;
shapes = (
{
closed = 1;
nodes = (
(322,-28,o),
(440,71,o),
(547,290,cs),
(576,349,o),
(542,370,o),
(507,311,cs),
(383,102,o),
(291,28,o),
(237,28,cs),
(192,28,o),
(149,78,o),
(149,157,cs),
(149,288,o),
(225,416,o),
(255,416,cs),
(271,416,o),
(283,396,o),
(283,322,cs),
(283,236,o),
(250,189,o),
(203,189,cs),
(176,189,o),
(151,201,o),
(122,240,cs),
(85,291,o),
(42,239,o),
(72,208,cs),
(117,161,o),
(158,139,o),
(208,139,cs),
(278,139,o),
(341,232,o),
(341,322,cs),
(341,410,o),
(303,473,o),
(255,473,cs),
(181,473,o),
(85,302,o),
(85,141,cs),
(85,38,o),
(143,-28,o),
(227,-28,cs)
);
}
);
width = 543;
}
);
},
{
glyphname = f.ss01;
lastChange = "2022-05-06 03:39:56 +0000";
layers = (
{
layerId = m01;
shapes = (
{
closed = 1;
nodes = (
(162,-507,o),
(184,-464,o),
(221,-251,cs),
(242,-126,o),
(281,66,o),
(330,233,cs),
(397,466,o),
(457,634,o),
(530,785,cs),
(536,796,o),
(546,797,o),
(553,789,cs),
(566,775,o),
(598,779,o),
(598,825,cs),
(598,939,o),
(548,940,o),
(498,844,cs),
(417,690,o),
(346,508,o),
(271,249,cs),
(222,77,o),
(178,-117,o),
(157,-241,cs),
(124,-438,o),
(111,-459,o),
(79,-471,cs),
(35,-487,o),
(56,-545,o),
(95,-531,cs)
);
},
{
closed = 1;
nodes = (
(0,200,o),
(8,211,o),
(39,212,cs),
(209,219,o),
(476,280,o),
(609,331,cs),
(689,362,o),
(674,396,o),
(609,372,cs),
(469,319,o),
(204,272,o),
(37,265,cs),
(-21,263,o),
(-54,228,o),
(-54,188,cs),
(-54,146,o),
(19,144,o),
(5,185,cs)
);
}
);
width = 602;
}
);
},
{
glyphname = g.ss01;
lastChange = "2022-05-06 03:40:00 +0000";
layers = (
{
layerId = m01;
shapes = (
{
closed = 1;
nodes = (
(5,-391,o),
(-23,-456,o),
(-23,-518,cs),
(-23,-626,o),
(48,-707,o),
(161,-707,cs),
(312,-707,o),
(414,-540,o),
(411,-378,cs),
(407,-165,o),
(406,145,o),
(418,417,cs),
(420,463,o),
(370,462,o),
(352,423,cs),
(242,181,o),
(167,66,o),
(140,66,cs),
(126,66,o),
(116,71,o),
(116,96,cs),
(116,140,o),
(183,248,o),
(301,344,cs),
(337,373,o),
(300,419,o),
(270,394,cs),
(128,280,o),
(51,154,o),
(51,94,cs),
(51,36,o),
(89,8,o),
(131,8,cs),
(197,8,o),
(272,107,o),
(348,288,c),
(342,45,o),
(344,-201,o),
(347,-380,cs),
(350,-520,o),
(270,-646,o),
(161,-646,cs),
(81,-646,o),
(31,-595,o),
(31,-521,cs),
(31,-468,o),
(46,-401,o),
(88,-346,cs),
(107,-321,o),
(88,-294,o),
(58,-329,cs)
);
}
);
width = 530;
}
);
},
{
glyphname = i.ss01;
lastChange = "2022-05-06 03:40:02 +0000";
layers = (
{
layerId = m01;
shapes = (
{
closed = 1;
nodes = (
(128,175,o),
(155,316,o),
(210,403,cs),
(239,448,o),
(192,478,o),
(148,409,cs),
(96,328,o),
(60,174,o),
(69,45,cs),
(73,-6,o),
(141,2,o),
(137,54,cs)
);
},
{
closed = 1;
nodes = (
(322,763,o),
(284,817,o),
(249,837,cs),
(206,861,o),
(168,813,o),
(201,796,cs),
(260,765,o),
(286,731,o),
(300,693,cs),
(314,656,o),
(358,676,o),
(334,734,cs)
);
}
);
width = 334;
}
);
},
{
glyphname = k.ss01;
lastChange = "2022-05-06 03:40:05 +0000";
layers = (
{
layerId = m01;
shapes = (
{
closed = 1;
nodes = (
(544,-42,o),
(558,-29,o),
(560,0,cs),
(573,239,o),
(485,343,o),
(394,343,cs),
(353,343,o),
(311,328,o),
(266,296,c),
(269,287,l),
(355,428,o),
(426,598,o),
(515,824,cs),
(537,880,o),
(476,893,o),
(409,715,cs),
(310,449,o),
(238,300,o),
(112,155,cs),
(78,116,o),
(131,76,o),
(166,124,cs),
(251,242,o),
(330,292,o),
(378,292,cs),
(434,292,o),
(508,218,o),
(496,4,cs),
(494,-27,o),
(509,-42,o),
(527,-42,cs)
);
},
{
closed = 1;
nodes = (
(131,4,o),
(193,7,o),
(190,78,cs),
(179,303,o),
(187,563,o),
(226,733,cs),
(240,792,o),
(270,797,o),
(270,814,cs),
(270,829,o),
(260,833,o),
(249,833,cs),
(228,832,o),
(186,811,o),
(161,701,cs),
(130,573,o),
(117,307,o),
(129,47,cs)
);
}
);
width = 631;
}
);
},
{
glyphname = l.ss01;
lastChange = "2022-05-06 03:41:15 +0000";
layers = (
{
layerId = m01;
shapes = (
{
closed = 1;
nodes = (
(83,-26,o),
(87,-1,o),
(102,40,cs),
(178,251,o),
(254,517,o),
(314,741,cs),
(333,816,o),
(269,829,o),
(258,781,cs),
(214,575,o),
(127,261,o),
(55,87,cs),
(39,49,o),
(27,11,o),
(27,-27,cs),
(27,-111,o),
(103,-127,o),
(87,-47,cs)
);
}
);
width = 313;
}
);
},
{
glyphname = m.ss01;
lastChange = "2022-05-06 03:41:21 +0000";
layers = (
{
layerId = m01;
shapes = (
{
closed = 1;
nodes = (
(964,384,o),
(917,487,o),
(819,487,cs),
(739,487,o),
(679,428,o),
(612,314,c),
(629,314,l),
(650,423,o),
(611,512,o),
(517,512,cs),
(403,512,o),
(265,384,o),
(123,173,c),
(138,178,l),
(177,294,o),
(212,372,o),
(252,428,cs),
(274,460,o),
(212,500,o),
(177,440,cs),
(138,372,o),
(87,241,o),
(56,116,cs),
(37,38,o),
(83,19,o),
(112,64,cs),
(275,314,o),
(419,456,o),
(517,456,cs),
(587,456,o),
(600,336,o),
(533,180,cs),
(510,125,o),
(565,108,o),
(601,180,cs),
(687,354,o),
(748,431,o),
(808,431,cs),
(869,431,o),
(897,371,o),
(868,209,cs),
(851,115,o),
(920,127,o),
(925,158,cs)
);
}
);
width = 994;
}
);
},
{
glyphname = n.ss01;
lastChange = "2022-05-06 03:41:33 +0000";
layers = (
{
layerId = m01;
shapes = (
{
closed = 1;
nodes = (
(442,123,o),
(452,152,cs),
(501,288,o),
(487,416,o),
(375,416,cs),
(283,416,o),
(162,260,o),
(111,98,c),
(151,89,l),
(171,393,ls),
(174,444,o),
(154,454,o),
(136,454,cs),
(119,454,o),
(111,447,o),
(109,424,cs),
(85,71,ls),
(80,-4,o),
(132,-4,o),
(141,26,cs),
(205,240,o),
(314,360,o),
(369,360,cs),
(430,360,o),
(428,261,o),
(382,134,cs),
(363,82,o),
(378,58,o),
(398,58,cs),
(420,57,o),
(460,90,o),
(460,105,cs),
(460,121,o)
);
}
);
width = 536;
}
);
},
{
glyphname = o.ss01;
lastChange = "2022-03-23 01:02:34 +0000";
layers = (
{
layerId = m01;
shapes = (
{
closed = 1;
nodes = (
(365,444,o),
(396,354,o),
(396,247,cs),
(396,109,o),
(323,35,o),
(239,35,cs),
(174,35,o),
(121,74,o),
(121,151,cs),
(121,252,o),
(179,351,o),
(251,380,cs),
(283,392,o),
(319,393,o),
(319,417,cs),
(319,456,o),
(275,446,o),
(242,433,cs),
(129,393,o),
(52,272,o),
(52,143,cs),
(52,37,o),
(138,-25,o),
(235,-25,cs),
(356,-25,o),
(457,81,o),
(457,247,cs),
(457,363,o),
(423,472,o),
(376,517,cs),
(318,573,o),
(275,532,o),
(307,501,cs)
);
}
);
width = 517;
}
);
},
{
glyphname = p.ss01;
lastChange = "2022-05-06 03:40:09 +0000";
layers = (
{
layerId = m01;
shapes = (
{
closed = 1;
nodes = (
(309,147,o),
(397,292,o),
(397,386,cs),
(397,461,o),
(348,510,o),
(294,510,cs),
(194,510,o),
(58,318,o),
(58,92,cs),
(58,-126,o),
(117,-239,o),
(171,-239,cs),
(222,-239,o),
(264,-136,o),
(224,194,cs),
(217,254,o),
(162,251,o),
(170,192,cs),
(203,-81,o),
(179,-179,o),
(164,-179,cs),
(149,-179,o),
(114,-79,o),
(114,105,cs),
(114,315,o),
(233,459,o),
(294,459,cs),
(315,459,o),
(333,441,o),
(333,395,cs),
(333,312,o),
(249,179,o),
(148,129,cs),
(116,111,o),
(150,57,o),
(189,79,cs)
);
}
);
width = 435;
}
);
},
{
glyphname = r.ss01;
lastChange = "2022-05-06 03:41:33 +0000";
layers = (
{
layerId = m01;
shapes = (
{
closed = 1;
nodes = (
(530,440,o),
(493,474,o),
(449,474,cs),
(361,474,o),
(229,269,o),
(152,26,c),
(170,33,l),
(155,146,o),
(155,258,o),
(159,321,cs),
(161,346,o),
(171,375,o),
(208,375,cs),
(219,375,o),
(228,387,o),
(228,397,cs),
(228,413,o),
(212,426,o),
(192,426,cs),
(148,426,o),
(100,381,o),
(95,325,cs),
(90,251,o),
(92,109,o),
(106,3,cs),
(120,-106,o),
(168,-84,o),
(182,-39,cs),
(273,251,o),
(399,414,o),
(441,414,cs),
(458,414,o),
(473,400,o),
(473,377,cs),
(473,327,o),
(530,334,o),
(530,391,cs)
);
}
);
width = 522;
}
);
},
{
glyphname = s.ss01;
lastChange = "2022-05-06 03:41:33 +0000";
layers = (
{
layerId = m01;
shapes = (
{
closed = 1;
nodes = (
(427,-34,o),
(427,49,cs),
(427,156,o),
(151,319,o),
(151,403,cs),
(151,470,o),
(247,485,o),
(360,443,cs),
(378,437,o),
(400,447,o),
(400,465,cs),
(400,478,o),
(393,491,o),
(382,494,cs),
(250,535,o),
(87,515,o),
(87,403,cs),
(87,289,o),
(368,126,o),
(368,49,cs),
(368,18,o),
(343,4,o),
(266,-2,cs),
(211,-6,o),
(197,-15,o),
(197,-27,cs),
(197,-41,o),
(218,-49,o),
(249,-48,cs),
(308,-49,o)
);
}
);
width = 512;
}
);
},
{
glyphname = t.ss01;
lastChange = "2022-05-06 03:40:16 +0000";
layers = (
{
layerId = m01;
shapes = (
{
closed = 1;
nodes = (
(167,-7,o),
(179,3,o),
(189,38,cs),
(195,59,o),
(200,107,o),
(208,195,cs),
(223,369,o),
(241,486,o),
(286,737,cs),
(304,837,o),
(289,852,o),
(269,852,cs),
(253,852,o),
(239,842,o),
(230,786,cs),
(182,502,o),
(166,367,o),
(150,202,cs),
(142,124,o),
(136,77,o),
(131,59,cs),
(120,18,o),
(126,-7,o),
(150,-7,cs)
);
},
{
closed = 1;
nodes = (
(377,381,o),
(431,381,o),
(488,368,cs),
(548,355,o),
(562,383,o),
(527,401,cs),
(461,431,o),
(383,429,o),
(91,382,cs),
(69,378,o),
(59,367,o),
(59,353,cs),
(59,336,o),
(75,321,o),
(115,329,cs)
);
}
);
width = 494;
}
);
},
{
glyphname = u.ss01;
lastChange = "2022-05-06 03:41:33 +0000";
layers = (
{
layerId = m01;
shapes = (
{
closed = 1;
nodes = (
(528,173,o),
(514,155,o),
(495,123,c),
(512,138,l),
(512,227,o),
(528,328,o),
(550,440,cs),
(559,485,o),
(509,498,o),
(468,430,cs),
(352,239,o),
(255,82,o),
(183,82,cs),
(138,82,o),
(116,115,o),
(116,160,cs),
(116,224,o),
(159,296,o),
(224,399,cs),
(244,435,o),
(180,463,o),
(143,391,cs),
(106,319,o),
(52,238,o),
(52,149,cs),
(52,84,o),
(94,22,o),
(171,22,cs),
(270,22,o),
(390,166,o),
(501,389,c),
(485,391,l),
(457,293,o),
(449,204,o),
(449,140,cs),
(449,20,o),
(509,41,o),
(527,73,cs),
(551,115,o),
(581,147,o),
(612,172,cs),
(632,188,o),
(604,215,o),
(549,185,cs)
);
}
);
width = 635;
},
{
associatedMasterId = m01;
layerId = "6925D8C5-FA38-42F3-AD90-00A9A6018040";
name = "23 Mar 22, 17:56";
shapes = (
{
closed = 1;
nodes = (
(568,240,o),
(540,194,o),
(495,123,c),
(514,138,l),
(503,227,o),
(542,332,o),
(552,440,cs),
(556,485,o),
(509,498,o),
(468,430,cs),
(351,237,o),
(253,78,o),
(180,78,cs),
(137,78,o),
(116,113,o),
(116,160,cs),
(116,224,o),
(159,296,o),
(224,399,cs),
(244,435,o),
(180,463,o),
(143,391,cs),
(106,319,o),
(52,238,o),
(52,149,cs),
(52,84,o),
(94,22,o),
(171,22,cs),
(270,22,o),
(390,166,o),
(501,389,c),
(485,391,l),
(457,293,o),
(449,204,o),
(449,140,cs),
(449,20,o),
(505,39,o),
(527,78,cs),
(583,179,o),
(622,224,o),
(676,259,cs),
(700,276,o),
(693,343,o),
(605,266,cs)
);
}
);
width = 763;
}
);
},
{
glyphname = v.ss01;
lastChange = "2022-05-06 03:41:33 +0000";
layers = (
{
layerId = m01;
shapes = (
{
closed = 1;
nodes = (
(290,8,o),
(397,193,o),
(473,431,cs),
(493,494,o),
(434,507,o),
(404,408,cs),
(344,217,o),
(253,69,o),
(195,69,cs),
(137,69,o),
(82,230,o),
(158,415,cs),
(174,455,o),
(107,473,o),
(85,406,cs),
(16,192,o),
(79,8,o),
(187,8,cs)
);
}
);
width = 495;
}
);
},
{
glyphname = w.ss01;
lastChange = "2022-05-06 03:41:33 +0000";
layers = (
{
layerId = m01;
shapes = (
{
closed = 1;
nodes = (
(797,241,o),
(726,125,o),
(608,125,cs),
(514,125,o),
(470,219,o),
(517,345,cs),
(534,392,o),
(498,410,o),
(442,361,cs),
(334,266,o),
(233,192,o),
(187,192,cs),
(126,192,o),
(93,320,o),
(177,437,cs),
(202,472,o),
(136,502,o),
(105,447,cs),
(30,313,o),
(53,133,o),
(178,133,cs),
(244,133,o),
(349,202,o),
(465,312,c),
(433,307,l),
(401,175,o),
(469,69,o),
(602,69,cs),
(762,69,o),
(878,224,o),
(776,400,cs),
(749,447,o),
(713,411,o),
(743,350,cs)
);
}
);
width = 860;
}
);
},
{
glyphname = y.ss01;
lastChange = "2022-05-06 03:40:19 +0000";
layers = (
{
layerId = m01;
shapes = (
{
closed = 1;
nodes = (
(27,-177,o),
(-29,-339,o),
(-29,-441,cs),
(-29,-553,o),
(13,-603,o),
(70,-603,cs),
(159,-603,o),
(293,-446,o),
(332,-195,cs),
(351,-70,o),
(374,103,o),
(454,378,cs),
(465,413,o),
(409,431,o),
(379,369,cs),
(305,220,o),
(201,84,o),
(155,84,cs),
(139,84,o),
(128,94,o),
(128,139,cs),
(128,214,o),
(157,324,o),
(217,419,cs),
(232,443,o),
(219,462,o),
(195,462,cs),
(183,462,o),
(174,456,o),
(164,440,cs),
(97,336,o),
(64,219,o),
(64,139,cs),
(64,56,o),
(113,28,o),
(153,28,cs),
(206,28,o),
(272,89,o),
(355,222,c),
(300,17,o),
(285,-99,o),
(271,-187,cs),
(235,-421,o),
(128,-547,o),
(70,-547,cs),
(43,-547,o),
(25,-529,o),
(25,-441,cs),
(25,-346,o),
(72,-189,o),
(116,-125,cs),
(144,-84,o),
(133,-63,o),
(118,-63,cs),
(108,-63,o),
(99,-69,o),
(76,-103,cs)
);
}
);
width = 520;
}
);
},
{
glyphname = s.ss02;
lastChange = "2022-05-06 03:41:33 +0000";
layers = (
{
layerId = m01;
shapes = (
{
closed = 1;
nodes = (
(228,-10,o),
(289,23,o),
(289,89,cs),
(289,186,o),
(140,262,o),
(140,332,cs),
(140,358,o),
(196,391,o),
(234,403,cs),
(247,407,o),
(255,392,o),
(270,392,cs),
(291,392,o),
(303,409,o),
(303,422,cs),
(303,448,o),
(279,461,o),
(257,461,cs),
(214,461,o),
(76,393,o),
(76,328,cs),
(76,230,o),
(225,154,o),
(225,89,cs),
(225,54,o),
(204,43,o),
(190,43,cs),
(157,43,o),
(132,76,o),
(120,124,cs),
(115,144,o),
(83,140,o),
(83,86,cs),
(83,56,o),
(120,-10,o),
(190,-10,cs)
);
}
);
width = 368;
}
);
},
{
glyphname = f_i;
lastChange = "2022-05-06 03:40:22 +0000";
layers = (
{
layerId = m01;
shapes = (
{
closed = 1;
nodes = (
(224,-114,o),
(440,605,o),
(519,848,cs),
(556,960,o),
(593,1009,o),
(643,1009,cs),
(747,1009,o),
(793,914,o),
(719,746,cs),
(705,714,o),
(760,698,o),
(778,746,cs),
(848,934,o),
(780,1065,o),
(643,1065,cs),
(555,1065,o),
(499,986,o),
(461,866,cs),
(380,619,o),
(160,-106,o),
(151,-223,cs),
(146,-296,o),
(210,-300,o),
(213,-258,cs)
);
},
{
closed = 1;
nodes = (
(230,389,o),
(418,403,o),
(506,380,cs),
(552,368,o),
(566,406,o),
(483,428,cs),
(420,445,o),
(192,442,o),
(16,387,cs),
(-42,369,o),
(-25,320,o),
(22,333,cs)
);
},
{
closed = 1;
nodes = (
(672,153,o),
(706,310,o),
(747,444,cs),
(760,487,o),
(697,509,o),
(674,429,cs),
(643,321,o),
(611,160,o),
(573,53,cs),
(560,15,o),
(617,0,o),
(640,65,cs)
);
}
);
width = 786;
}
);
},
{
glyphname = o_f;
lastChange = "2022-05-06 03:40:25 +0000";
layers = (
{
layerId = m01;
shapes = (
{
closed = 1;
nodes = (
(339,-593,o),
(495,-512,o),
(483,-15,cs),
(480,114,o),
(539,328,o),
(586,494,c),
(571,494,l),
(470,299,o),
(289,136,o),
(196,136,cs),
(155,136,o),
(130,154,o),
(130,186,cs),
(130,249,o),
(251,349,o),
(301,349,cs),
(326,349,o),
(342,344,o),
(331,306,cs),
(320,270,o),
(398,245,o),
(398,324,cs),
(398,375,o),
(359,407,o),
(304,407,cs),
(223,407,o),
(66,281,o),
(66,186,cs),
(66,122,o),
(123,80,o),
(193,80,cs),
(359,80,o),
(683,476,o),
(683,797,cs),
(683,846,o),
(667,876,o),
(648,876,cs),
(564,876,o),
(425,133,o),
(425,-17,cs),
(425,-472,o),
(313,-535,o),
(240,-535,cs),
(188,-535,o),
(156,-502,o),
(156,-428,cs),
(156,-230,o),
(518,29,o),
(764,174,cs),
(813,203,o),
(761,221,o),
(698,184,cs),
(488,61,o),
(97,-212,o),
(97,-428,cs),
(97,-529,o),
(158,-593,o),
(240,-593,cs)
);
}
);
width = 807;
}
);
},
{
glyphname = t_r;
lastChange = "2022-05-06 03:40:28 +0000";
layers = (
{
layerId = m01;
shapes = (
{
closed = 1;
nodes = (
(116,-81,o),
(137,-46,o),
(166,36,cs),
(253,281,o),
(351,552,o),
(397,722,cs),
(435,865,o),
(385,880,o),
(371,828,cs),
(301,566,o),
(198,296,o),
(110,48,cs),
(84,-26,o),
(63,-53,o),
(46,-63,cs),
(-12,-97,o),
(47,-133,o),
(93,-98,cs)
);
},
{
closed = 1;
nodes = (
(859,406,o),
(818,430,o),
(785,430,cs),
(727,430,o),
(600,331,o),
(474,208,c),
(503,270,o),
(539,355,o),
(539,390,cs),
(539,448,o),
(483,495,o),
(420,495,cs),
(330,495,o),
(30,362,o),
(12,304,cs),
(7,284,o),
(20,264,o),
(38,264,cs),
(52,264,o),
(65,275,o),
(69,290,cs),
(78,321,o),
(308,444,o),
(416,444,cs),
(451,444,o),
(475,423,o),
(475,390,cs),
(475,343,o),
(378,178,o),
(378,114,cs),
(378,90,o),
(403,73,o),
(425,96,cs),
(585,273,o),
(746,378,o),
(791,378,cs),
(819,378,o),
(820,361,o),
(841,361,cs),
(852,361,o),
(859,369,o),
(859,379,cs)
);
}
);
width = 807;
}
);
},
{
glyphname = t_t;
lastChange = "2022-03-23 00:23:15 +0000";
layers = (
{
layerId = m01;
shapes = (
{
closed = 1;
nodes = (
(182,-51,o),
(246,-62,o),
(270,51,cs),
(377,562,ls),
(413,732,o),
(461,819,o),
(510,878,cs),
(535,903,o),
(490,943,o),
(440,883,cs),
(398,832,o),
(354,742,o),
(316,565,cs),
(197,16,ls)
);
},
{
closed = 1;
nodes = (
(239,308,o),
(531,423,o),
(787,470,cs),
(868,485,o),
(853,541,o),
(809,532,cs),
(517,478,o),
(239,365,o),
(47,399,cs),
(30,402,o),
(14,389,o),
(14,371,cs),
(14,357,o),
(24,346,o),
(38,344,cs)
);
},
{
closed = 1;
nodes = (
(461,-92,o),
(520,-86,o),
(538,-19,cs),
(586,163,o),
(604,345,o),
(625,518,cs),
(645,679,o),
(658,756,o),
(688,824,cs),
(713,880,o),
(660,905,o),
(629,836,cs),
(602,776,o),
(585,692,o),
(569,530,cs),
(550,339,o),
(520,139,o),
(479,-21,cs)
);
}
);
width = 804;
}
);
metricLeft = t;
},
{
glyphname = zero;
lastChange = "2022-04-12 02:20:26 +0000";
layers = (
{
layerId = m01;
shapes = (
{
closed = 1;
nodes = (
(587,7,o),
(744,210,o),
(744,480,cs),
(744,698,o),
(616,815,o),
(430,815,cs),
(354,815,o),
(354,766,o),
(391,766,cs),
(588,766,o),
(685,672,o),
(685,480,cs),
(685,232,o),
(551,64,o),
(393,64,cs),
(255,64,o),
(141,180,o),
(141,312,cs),
(141,479,o),
(306,643,o),
(375,643,cs),
(401,643,o),
(396,630,o),
(424,630,cs),
(473,630,o),
(462,709,o),
(391,709,cs),
(287,709,o),
(75,505,o),
(75,308,cs),
(75,151,o),
(217,7,o),
(391,7,cs)
);
}
);
width = 784;
}
);
unicode = 48;
},
{
glyphname = one;
lastChange = "2022-04-12 02:21:42 +0000";
layers = (
{
layerId = m01;
shapes = (
{
closed = 1;
nodes = (
(160,238,o),
(171,484,o),
(260,794,cs),
(272,835,o),
(206,851,o),
(186,783,cs),
(104,498,o),
(105,213,o),
(138,21,cs),
(149,-44,o),
(209,-32,o),
(200,18,cs)
);
}
);
width = 301;
}
);
unicode = 49;
},
{
glyphname = two;
lastChange = "2022-05-06 03:41:33 +0000";
layers = (
{
layerId = m01;
shapes = (
{
closed = 1;
nodes = (
(687,174,o),
(414,121,o),
(133,-14,c),
(130,-42,l),
(351,262,o),
(474,515,o),
(474,655,cs),
(474,755,o),
(415,822,o),
(327,822,cs),
(241,822,o),
(101,730,o),
(101,646,cs),
(101,593,o),
(153,594,o),
(161,636,cs),
(176,712,o),
(258,766,o),
(327,766,cs),
(373,766,o),
(410,731,o),
(410,655,cs),
(410,512,o),
(283,264,o),
(68,-30,cs),
(31,-81,o),
(56,-108,o),
(115,-80,cs),
(380,51,o),
(679,118,o),
(908,106,cs),
(956,103,o),
(960,159,o),
(873,164,cs)
);
}
);
width = 755;
}
);
unicode = 50;
},
{
glyphname = three;
lastChange = "2022-04-12 02:45:22 +0000";
layers = (
{
layerId = m01;
shapes = (
{
closed = 1;
nodes = (
(540,-13,o),
(620,71,o),
(620,172,cs),
(620,276,o),
(528,401,o),
(371,444,c),
(347,428,l),
(554,465,o),
(661,584,o),
(661,668,cs),
(661,745,o),
(567,813,o),
(370,813,cs),
(248,813,o),
(114,790,o),
(69,730,cs),
(31,678,o),
(104,652,o),
(122,686,cs),
(152,742,o),
(243,761,o),
(370,761,cs),
(540,761,o),
(597,717,o),
(597,671,cs),
(597,602,o),
(488,469,o),
(263,463,cs),
(218,462,o),
(222,410,o),
(295,410,cs),
(451,410,o),
(556,277,o),
(556,172,cs),
(556,94,o),
(506,41,o),
(394,41,cs),
(363,41,o),
(328,46,o),
(286,59,cs),
(251,71,o),
(244,21,o),
(299,4,cs),
(323,-4,o),
(357,-13,o),
(401,-13,cs)
);
}
);
width = 684;
}
);
unicode = 51;
},
{
glyphname = four;
lastChange = "2022-05-06 03:41:33 +0000";
layers = (
{
layerId = m01;
shapes = (
{
closed = 1;
nodes = (
(613,343,o),
(667,359,o),
(667,395,cs),
(667,410,o),
(651,424,o),
(630,424,cs),
(601,424,o),
(598,395,o),
(547,395,cs),
(472,395,o),
(256,401,o),
(170,407,cs),
(149,408,o),
(139,416,o),
(139,432,cs),
(139,466,o),
(175,564,o),
(332,778,cs),
(358,813,o),
(297,848,o),
(258,785,cs),
(139,596,o),
(80,479,o),
(80,427,cs),
(80,388,o),
(103,360,o),
(166,355,cs),
(252,349,o),
(472,343,o),
(547,343,cs)
);
},
{
closed = 1;
nodes = (
(559,-91,o),
(615,-65,o),
(590,-27,cs),
(484,120,o),
(449,282,o),
(499,525,cs),
(507,567,o),
(446,578,o),
(430,504,cs),
(389,306,o),
(419,105,o),
(517,-33,cs)
);
}
);
width = 683;
}
);
unicode = 52;
},
{
glyphname = five;
lastChange = "2022-05-06 03:41:33 +0000";
layers = (
{
layerId = m01;
shapes = (
{
closed = 1;
nodes = (
(138,223,o),
(127,191,o),
(127,159,cs),
(127,91,o),
(257,-8,o),
(438,-8,cs),
(571,-8,o),
(668,72,o),
(668,213,cs),
(668,366,o),
(543,516,o),
(222,502,cs),
(175,500,o),
(161,508,o),
(161,527,cs),
(161,593,o),
(392,757,o),
(661,766,cs),
(704,767,o),
(705,824,o),
(627,820,cs),
(370,804,o),
(98,615,o),
(98,516,cs),
(98,472,o),
(128,443,o),
(224,447,cs),
(507,460,o),
(604,342,o),
(604,213,cs),
(604,100,o),
(541,46,o),
(438,46,cs),
(283,46,o),
(186,123,o),
(186,159,cs),
(186,182,o),
(194,203,o),
(220,223,cs),
(250,250,o),
(203,278,o),
(165,245,cs)
);
}
);
width = 732;
}
);
unicode = 53;
},
{
glyphname = six;
lastChange = "2022-04-12 03:02:36 +0000";
layers = (
{
layerId = m01;
shapes = (
{
closed = 1;
nodes = (
(323,316,o),
(404,331,o),
(450,331,cs),
(484,331,o),
(503,313,o),
(503,284,cs),
(503,167,o),
(341,26,o),
(240,26,cs),
(165,26,o),
(119,66,o),
(119,172,cs),
(119,415,o),
(404,778,o),
(575,778,cs),
(633,778,o),
(628,730,o),
(661,730,cs),
(682,730,o),
(696,739,o),
(696,758,cs),
(696,789,o),
(631,829,o),
(578,829,cs),
(372,829,o),
(56,437,o),
(56,166,cs),
(56,36,o),
(129,-28,o),
(235,-28,cs),
(367,-28,o),
(564,144,o),
(564,286,cs),
(564,342,o),
(520,385,o),
(455,385,cs),
(404,385,o),
(303,368,o),
(176,304,cs),
(143,288,o),
(169,235,o),
(232,268,cs)
);
}
);
width = 661;
}
);
unicode = 54;
},
{
glyphname = seven;
lastChange = "2022-04-12 03:05:22 +0000";
layers = (
{
layerId = m01;
shapes = (
{
closed = 1;
nodes = (
(443,269,o),
(736,458,o),
(736,664,cs),
(736,772,o),
(635,828,o),
(484,828,cs),
(360,828,o),
(216,798,o),
(92,727,cs),
(36,696,o),
(85,646,o),
(137,679,cs),
(238,744,o),
(358,773,o),
(484,773,cs),
(608,773,o),
(673,738,o),
(673,664,cs),
(673,481,o),
(388,298,o),
(263,55,cs),
(224,-22,o),
(291,-42,o),
(308,-8,cs)
);
}
);
width = 736;
}
);
unicode = 55;
},
{
glyphname = eight;
lastChange = "2022-04-12 02:53:06 +0000";
layers = (
{
layerId = m01;
shapes = (
{
closed = 1;
nodes = (
(376,644,o),
(175,318,o),
(176,109,cs),
(176,20,o),
(238,-9,o),
(295,-9,cs),
(380,-9,o),
(482,114,o),
(482,216,cs),
(482,411,o),
(174,518,o),
(174,592,cs),
(174,642,o),
(367,772,o),
(403,772,cs),
(431,772,o),
(416,739,o),
(446,739,cs),
(459,739,o),
(470,752,o),
(470,768,cs),
(470,794,o),
(444,828,o),
(412,828,cs),
(348,828,o),
(113,674,o),
(113,592,cs),
(113,472,o),
(419,390,o),
(419,216,cs),
(419,136,o),
(343,47,o),
(291,47,cs),
(259,47,o),
(237,65,o),
(237,116,cs),
(237,317,o),
(404,600,o),
(612,792,cs),
(641,819,o),
(601,855,o),
(549,806,cs)
);
}
);
width = 589;
}
);
unicode = 56;
},
{
glyphname = nine;
lastChange = "2022-05-06 03:41:33 +0000";
layers = (
{
layerId = m01;
shapes = (
{
closed = 1;
nodes = (
(456,198,o),
(488,447,o),
(584,715,cs),
(609,787,o),
(556,801,o),
(539,772,cs),
(415,558,o),
(255,405,o),
(196,405,cs),
(171,405,o),
(155,425,o),
(155,465,cs),
(155,609,o),
(318,767,o),
(372,767,cs),
(392,767,o),
(398,744,o),
(418,744,cs),
(434,744,o),
(447,757,o),
(447,773,cs),
(447,803,o),
(405,819,o),
(372,819,cs),
(281,819,o),
(91,631,o),
(91,463,cs),
(91,399,o),
(128,349,o),
(190,349,cs),
(277,349,o),
(418,482,o),
(536,670,c),
(494,625,l),
(423,378,o),
(403,156,o),
(447,27,cs),
(472,-43,o),
(534,-25,o),
(520,16,cs)
);
}
);
width = 633;
}
);
unicode = 57;
},
{
glyphname = .notdef;
lastChange = "2022-08-24 08:12:36 +0000";
layers = (
{
backgroundImage = {
imagePath = "/Users/dennisgrauel/Dropbox/Screenshots/Screen Shot 2022-08-24 at 6.04.59 pm.png";
locked = 1;
pos = (-41,-160);
scale = (4.0123,4.0123);
};
layerId = m01;
shapes = (
{
closed = 1;
nodes = (
(699,120,o),
(833,236,o),
(859,270,cs),
(894,319,o),
(884,361,o),
(796,331,cs),
(637,274,o),
(434,143,o),
(266,71,cs),
(253,66,o),
(255,73,o),
(263,80,cs),
(395,191,o),
(777,442,o),
(845,514,cs),
(906,579,o),
(845,596,o),
(787,572,cs),
(631,507,o),
(468,426,o),
(323,352,c),
(322,350,l),
(438,440,o),
(666,603,o),
(756,681,cs),
(806,725,o),
(786,781,o),
(727,757,cs),
(538,681,o),
(302,558,o),
(144,470,c),
(149,472,l),
(299,582,o),
(480,715,o),
(653,848,cs),
(686,872,o),
(639,907,o),
(607,878,cs),
(454,736,o),
(243,586,o),
(97,477,cs),
(40,435,o),
(75,385,o),
(142,422,cs),
(314,515,o),
(526,634,o),
(729,711,c),
(725,711,l),
(571,588,o),
(403,465,o),
(249,340,cs),
(183,288,o),
(249,262,o),
(304,294,cs),
(453,379,o),
(664,481,o),
(799,534,cs),
(809,538,o),
(807,533,o),
(804,530,cs),
(634,387,o),
(342,205,o),
(189,68,cs),
(129,14,o),
(187,-14,o),
(250,14,cs),
(446,103,o),
(648,225,o),
(791,281,cs),
(795,283,o),
(800,281,o),
(793,274,cs),
(709,195,o),
(585,99,o),
(477,16,cs),
(457,1,o),
(474,-35,o),
(513,-8,cs)
);
}
);
width = 910;
}
);
},
{
glyphname = period;
lastChange = "2022-03-22 10:55:10 +0000";
layers = (
{
layerId = m01;
shapes = (
{
closed = 1;
nodes = (
(127,-12,o),
(177,40,o),
(177,72,cs),
(177,105,o),
(151,131,o),
(116,131,cs),
(83,131,o),
(44,71,o),
(44,31,cs),
(44,3,o),
(66,-12,o),
(89,-12,cs)
);
}
);
width = 268;
}
);
unicode = 46;
},
{
glyphname = comma;
lastChange = "2022-03-22 10:56:55 +0000";
layers = (
{
layerId = m01;
shapes = (
{
closed = 1;
nodes = (
(223,110,o),
(208,82,o),
(208,50,cs),
(208,-3,o),
(127,-80,o),
(37,-115,cs),
(1,-129,o),
(1,-158,o),
(32,-158,cs),
(104,-158,o),
(288,-22,o),
(288,69,cs),
(288,97,o),
(273,110,o),
(249,110,cs)
);
}
);
width = 390;
}
);
unicode = 44;
},
{
glyphname = hyphen;
lastChange = "2022-05-06 03:41:33 +0000";
layers = (
{
layerId = m01;
shapes = (
{
closed = 1;
nodes = (
(190,244,o),
(282,259,o),
(352,277,cs),
(457,303,o),
(436,334,o),
(409,329,cs),
(356,318,o),
(178,301,o),
(92,296,cs),
(72,295,o),
(57,283,o),
(57,268,cs),
(57,252,o),
(81,238,o),
(109,240,cs)
);
}
);
width = 467;
}
);
unicode = 45;
},
{
glyphname = plus;
lastChange = "2022-05-06 03:41:33 +0000";
layers = (
{
layerId = m01;
shapes = (
{
closed = 1;
nodes = (
(374,175,o),
(494,272,o),
(544,396,cs),
(579,481,o),
(532,503,o),
(518,466,cs),
(447,297,o),
(352,221,o),
(259,221,cs),
(184,221,o),
(129,248,o),
(129,259,cs),
(129,262,o),
(134,265,o),
(147,265,cs),
(248,265,o),
(358,198,o),
(485,200,cs),
(564,201,o),
(564,247,o),
(527,247,cs),
(371,244,o),
(263,315,o),
(142,315,cs),
(92,315,o),
(66,289,o),
(66,260,cs),
(66,216,o),
(164,175,o),
(259,175,cs)
);
},
{
closed = 1;
nodes = (
(344,38,o),
(372,95,o),
(372,148,cs),
(372,223,o),
(333,435,o),
(303,562,cs),
(292,610,o),
(271,625,o),
(246,625,cs),
(221,625,o),
(199,611,o),
(171,592,cs),
(122,557,o),
(156,520,o),
(190,544,cs),
(221,566,o),
(232,572,o),
(237,572,cs),
(242,572,o),
(246,569,o),
(251,550,cs),
(279,425,o),
(312,218,o),
(312,147,cs),
(312,91,o),
(268,105,o),
(268,67,cs),
(268,53,o),
(280,38,o),
(302,38,cs)
);
}
